<svg xmlns="http://www.w3.org/2000/svg" viewBox="0 0 1200 1500">
  <rect width="1200" height="1500" fill="#f8f2e8"/>
  <path d="M180 300 C360 210 490 300 620 280 C815 250 930 150 1040 240 C1110 310 1030 460 890 520 C700 604 520 510 350 590 C210 655 110 545 180 300Z" fill="#b78b64" opacity=".72"/>
  <path d="M220 1010 C430 850 650 940 850 840 C960 785 1060 830 1090 930 C1135 1080 970 1190 760 1160 C535 1125 410 1230 240 1180 C110 1140 110 1090 220 1010Z" fill="#3a3630" opacity=".86"/>
  <path d="M160 0 L360 1500" stroke="#171512" stroke-width="26" opacity=".28"/>
  <path d="M980 0 L770 1500" stroke="#b78b64" stroke-width="34" opacity=".5"/>
</svg>
