<svg xmlns="http://www.w3.org/2000/svg" viewBox="0 0 900 1125" role="img" aria-labelledby="title desc">
  <title id="title">Kofi Baiden artist portrait placeholder</title>
  <desc id="desc">Editorial portrait placeholder for Kofi Baiden Brushworks.</desc>
  <defs>
    <linearGradient id="wall" x1="0" x2="1" y1="0" y2="1">
      <stop offset="0" stop-color="#efe7da"/>
      <stop offset="0.55" stop-color="#d8cab8"/>
      <stop offset="1" stop-color="#9f7b5e"/>
    </linearGradient>
    <linearGradient id="figure" x1="0" x2="0" y1="0" y2="1">
      <stop offset="0" stop-color="#3a342d"/>
      <stop offset="1" stop-color="#171512"/>
    </linearGradient>
    <filter id="soft" x="-20%" y="-20%" width="140%" height="140%">
      <feGaussianBlur stdDeviation="18"/>
    </filter>
  </defs>
  <rect width="900" height="1125" fill="url(#wall)"/>
  <path d="M0 805c170-77 311-100 462-66 171 39 271-7 438-91v477H0Z" fill="#ede3d3" opacity=".42"/>
  <path d="M141 229c113-48 222-72 328-72 116 0 219 30 309 90" fill="none" stroke="#7f6048" stroke-width="3" opacity=".26"/>
  <path d="M150 904c142-86 254-120 383-101 113 17 210-8 308-78" fill="none" stroke="#171512" stroke-width="2" opacity=".16"/>
  <ellipse cx="455" cy="1012" rx="256" ry="52" fill="#171512" opacity=".2" filter="url(#soft)"/>
  <path d="M332 472c16-57 65-96 124-96 63 0 113 44 126 105 12 58-6 123-42 161-24 25-50 39-83 39-36 0-66-15-91-44-36-41-49-107-34-165Z" fill="#2f2a24"/>
  <path d="M277 803c20-93 73-151 162-169h38c90 18 143 76 162 169l36 180H243Z" fill="url(#figure)"/>
  <path d="M381 666c22 25 48 37 78 37 27 0 53-11 75-34l11 52c-50 42-113 43-176 2Z" fill="#24211d"/>
  <path d="M345 424c26-45 67-68 122-68 51 0 89 23 115 69-27-16-61-23-101-21-49 3-94 10-136 20Z" fill="#171512"/>
  <path d="M312 806c59 48 119 73 181 73 55 0 108-21 160-64" fill="none" stroke="#b78b64" stroke-width="6" opacity=".42"/>
  <path d="M318 869c89 45 187 49 293 11" fill="none" stroke="#efe7da" stroke-width="3" opacity=".24"/>
</svg>
